<?xml version="1.0" standalone="no"?>
<!DOCTYPE svg PUBLIC "-//W3C//DTD SVG 20010904//EN"
 "http://www.w3.org/TR/2001/REC-SVG-20010904/DTD/svg10.dtd">
<svg version="1.0" xmlns="http://www.w3.org/2000/svg"
 width="2360.000000pt" height="2360.000000pt" viewBox="0 0 2360.000000 2360.000000"
 preserveAspectRatio="xMidYMid meet">
<metadata>
Created by potrace 1.14, written by Peter Selinger 2001-2017
</metadata>
<g transform="translate(0.000000,2360.000000) scale(0.100000,-0.100000)"
fill="#000000" stroke="none">
<path d="M6112 15035 c-42 -18 -53 -44 -49 -114 4 -57 -4 -79 -16 -47 -3 8
-21 26 -40 40 -61 46 -150 38 -194 -18 -15 -18 -23 -22 -31 -14 -17 17 -84 18
-119 1 -57 -27 -78 -113 -42 -171 18 -29 75 -55 105 -49 l24 4 -24 -31 c-37
-49 -38 -101 -3 -141 20 -23 24 -24 48 -11 22 11 31 11 57 0 30 -12 51 -12 93
1 17 6 18 4 9 -22 -11 -29 -27 -67 -40 -93 -4 -8 -22 -15 -43 -15 -43 -2 -61
-16 -137 -111 -89 -111 -110 -163 -115 -287 -6 -122 48 -201 156 -231 32 -10
63 -15 68 -11 5 3 12 1 15 -4 4 -5 -8 -12 -26 -16 -54 -11 -182 -48 -190 -54
-4 -3 2 -43 14 -89 18 -70 23 -82 39 -77 9 3 26 8 36 10 10 2 60 18 111 34
l94 30 -39 -37 c-22 -20 -48 -55 -58 -77 -22 -48 -32 -152 -16 -168 6 -6 11
-17 11 -25 0 -15 47 -66 70 -75 14 -5 7 -7 -55 -12 -52 -4 -105 -18 -115 -30
-16 -20 -3 -54 23 -60 12 -3 85 -4 162 -2 144 4 210 -4 234 -28 12 -12 12 -14
-5 -13 -10 0 -54 -1 -97 -2 l-79 -3 7 -36 c4 -20 9 -52 11 -71 2 -19 6 -46 9
-60 3 -14 7 -41 10 -60 51 -341 174 -616 351 -787 57 -55 136 -113 153 -113 6
0 11 -4 11 -10 0 -5 9 -10 20 -10 11 0 20 -4 20 -8 0 -4 15 -12 32 -17 28 -8
34 -16 39 -47 3 -21 4 -39 2 -41 -2 -2 -40 15 -86 39 -93 49 -232 98 -324 114
-34 6 -65 10 -70 9 -4 -1 -12 0 -18 1 -51 10 -155 -1 -240 -25 -27 -8 -52 -13
-55 -12 -3 1 -19 -8 -37 -21 -17 -12 -34 -22 -37 -22 -14 0 -73 -47 -122 -98
-169 -175 -177 -391 -22 -613 23 -34 48 -68 53 -77 6 -8 17 -23 25 -32 8 -9
34 -38 57 -65 23 -28 53 -63 68 -80 14 -16 43 -50 63 -75 20 -25 40 -47 43
-50 5 -4 43 -49 172 -200 96 -112 163 -186 229 -255 90 -91 82 -63 103 -355 3
-47 8 -107 10 -135 3 -27 7 -86 10 -130 3 -44 7 -105 10 -135 8 -93 15 -182
20 -255 5 -72 13 -176 20 -255 3 -25 7 -83 9 -129 3 -45 7 -86 11 -89 3 -3 46
-6 95 -6 50 0 90 -2 90 -5 0 -11 -65 -101 -73 -101 -4 0 -17 -9 -28 -19 -12
-11 -48 -27 -81 -37 -32 -10 -63 -24 -69 -30 -14 -17 -21 -63 -15 -90 6 -21
37 -32 111 -39 30 -3 96 20 136 47 45 30 51 38 85 108 11 23 18 30 21 20 16
-58 36 -98 46 -95 7 3 23 7 37 9 82 16 88 19 73 38 -14 18 -41 96 -47 133 -2
17 -5 37 -7 45 -3 12 7 15 51 15 30 0 60 3 65 7 6 4 10 129 9 345 l-1 338 41
46 c23 25 54 70 70 99 29 52 33 78 36 223 0 11 30 8 30 -3 0 -5 5 -10 12 -10
6 0 20 -7 30 -17 10 -9 20 -14 22 -12 2 2 20 37 39 77 l36 72 -30 15 c-16 9
-29 13 -29 10 0 -7 -51 25 -70 44 -9 9 -25 33 -37 53 l-22 37 45 37 c27 23 43
43 39 52 -5 12 -54 92 -177 283 -26 41 -48 78 -48 81 0 2 21 -1 48 -8 26 -7
84 -10 132 -8 91 4 92 4 160 24 25 8 47 14 50 14 14 2 98 58 120 79 76 74 128
189 145 322 4 28 9 61 11 75 5 34 5 220 0 300 l-4 65 101 1 c246 2 439 116
473 279 2 11 6 31 10 45 19 82 19 493 1 575 -3 12 -8 52 -12 90 -3 38 -11 73
-17 76 -6 4 -38 7 -70 7 -32 -1 -61 2 -64 5 -4 3 9 15 27 27 30 18 44 20 114
15 219 -17 327 -7 333 31 3 20 -27 40 -78 52 -32 8 -419 9 -484 2 -81 -9 -91
-19 -95 -87 -2 -52 -5 -58 -29 -59 -29 -1 -146 -15 -163 -20 -10 -3 -16 -16
-16 -37 -1 -71 0 -70 -48 -33 -24 19 -54 37 -65 41 -28 9 -25 20 13 39 100 49
106 74 25 115 -86 43 -101 56 -102 84 -2 30 -19 47 -49 47 -19 0 -27 13 -31
56 -4 39 13 73 39 80 33 8 48 44 40 92 -7 42 -21 55 -65 57 -24 1 -25 3 -26
80 -2 94 -11 192 -20 206 -3 5 -1 15 4 22 30 38 24 165 -10 199 -14 14 -30 19
-56 17 -28 -3 -50 5 -92 31 -30 19 -59 35 -65 37 -5 1 -23 5 -40 9 -82 18
-163 5 -238 -39 -53 -32 -93 -77 -122 -142 -18 -40 -30 -53 -59 -63 -22 -8
-41 -23 -46 -37 -10 -26 -5 -100 9 -137 11 -28 11 -29 -5 -103 -7 -33 -13 -75
-14 -92 0 -30 -3 -33 -29 -33 -46 0 -73 -29 -77 -82 -4 -54 19 -88 60 -88 14
0 26 -2 26 -4 0 -2 -9 -26 -21 -53 -24 -56 -31 -113 -17 -130 7 -9 7 -13 0
-13 -23 0 -115 117 -152 194 -37 78 -83 207 -83 234 0 9 -11 12 -31 10 -31 -3
-31 -3 -31 46 0 45 -2 51 -30 62 -17 7 -47 13 -67 14 -42 0 -57 14 -30 29 27
14 63 95 67 148 6 98 -71 214 -152 229 -18 3 -31 9 -28 13 2 4 85 31 185 61
l181 54 -5 35 c-2 20 -8 50 -11 66 -4 17 -8 36 -8 43 0 15 -21 15 -67 1 -19
-5 -42 -12 -50 -14 -107 -28 -231 -64 -239 -70 -20 -11 -12 10 18 51 41 56 64
143 64 249 1 49 -2 108 -6 130 -10 62 -17 97 -24 130 -4 17 -6 33 -5 38 1 4
-6 7 -16 7 -16 0 -19 8 -18 50 1 27 7 55 14 62 9 9 12 7 12 -10 0 -60 65 -118
114 -103 50 15 97 75 80 103 -5 7 1 9 17 5 37 -9 97 8 127 37 15 15 40 36 55
49 20 15 26 27 21 40 -7 19 -71 50 -84 42 -5 -3 -11 -1 -15 5 -3 5 -17 10 -30
10 -28 0 -41 15 -22 27 29 18 57 72 57 110 0 46 -8 59 -47 81 -53 29 -113 72
-113 80 0 13 -69 79 -89 85 -10 2 -32 -1 -49 -8z m193 -154 c3 -5 1 -12 -5
-16 -5 -3 -10 1 -10 9 0 18 6 21 15 7z"/>
<path d="M2761 14983 c-19 -48 -27 -106 -27 -180 1 -40 -2 -69 -6 -65 -4 4
-19 52 -32 106 -26 101 -38 126 -62 126 -40 0 -47 -120 -14 -250 5 -19 11 -48
14 -65 3 -16 10 -48 15 -70 6 -22 10 -41 10 -43 0 -1 3 -17 6 -35 14 -85 14
-88 -2 -94 -9 -3 -25 0 -36 6 -17 11 -22 10 -29 -3 -5 -9 -14 -14 -19 -10 -6
3 -23 0 -40 -6 -22 -10 -29 -19 -29 -41 0 -18 7 -32 19 -39 18 -9 18 -13 6
-60 -7 -28 -13 -54 -14 -58 0 -8 -14 -104 -16 -112 -1 -3 -5 -27 -10 -55 -4
-27 -9 -59 -11 -70 -7 -36 -12 -69 -18 -115 -3 -25 -8 -54 -10 -65 -2 -11 -7
-51 -11 -90 -10 -94 -13 -109 -25 -113 -6 -2 -8 -8 -4 -13 3 -5 1 -9 -4 -9 -5
0 -7 -19 -4 -42 5 -48 4 -209 -2 -216 -2 -2 -34 10 -71 27 -36 17 -70 31 -75
31 -10 0 -61 -65 -170 -218 -85 -122 -87 -123 -135 -101 -115 50 -327 108
-373 101 -27 -4 -46 -36 -38 -65 8 -30 90 -114 162 -168 32 -24 61 -46 64 -49
7 -7 40 -25 111 -61 70 -36 72 -42 31 -162 -33 -97 -33 -103 -5 -125 14 -11
23 -33 27 -62 9 -69 52 -146 102 -184 48 -37 124 -60 172 -53 27 5 30 2 42
-37 14 -50 59 -155 75 -176 6 -8 11 -24 11 -35 -1 -11 6 -23 14 -27 12 -5 10
-8 -7 -14 -26 -7 -21 -24 7 -24 14 0 40 -42 40 -65 0 -1 -96 -3 -212 -4 -276
-4 -403 -10 -568 -26 -19 -2 -64 -7 -100 -10 -36 -3 -72 -8 -80 -10 -8 -2 -40
-7 -70 -10 -30 -4 -57 -8 -60 -10 -3 -2 -29 -6 -59 -10 -30 -4 -61 -8 -70 -10
-44 -10 -152 -34 -199 -46 -39 -9 -61 -10 -81 -2 -55 20 -77 -3 -85 -90 -2
-21 -6 -40 -9 -43 -2 -3 -42 -7 -88 -9 -143 -8 -198 -15 -324 -41 -74 -15
-211 -57 -223 -69 -12 -10 -10 -16 9 -34 25 -23 27 -23 234 -24 152 -1 170 2
251 44 34 17 79 32 102 33 35 2 41 0 45 -20 2 -13 0 -27 -5 -32 -6 -6 -6 -18
2 -31 6 -12 8 -26 5 -32 -9 -14 45 -59 67 -55 10 1 23 7 30 14 7 7 17 8 30 1
10 -5 18 -7 18 -4 0 3 8 1 17 -4 10 -5 32 -11 48 -14 17 -3 62 -13 100 -22 39
-9 79 -18 90 -19 11 -2 34 -6 50 -9 33 -7 70 -14 130 -22 22 -3 56 -8 75 -11
74 -11 98 -14 180 -20 47 -3 94 -7 105 -8 11 -1 25 -5 31 -9 7 -4 32 -3 58 2
25 4 48 6 51 3 5 -6 257 -4 355 3 259 17 325 38 417 130 l52 52 63 -31 c35
-17 86 -41 113 -53 81 -36 130 -57 135 -58 12 -4 107 -46 122 -55 10 -5 22
-10 27 -10 4 0 30 -10 57 -22 27 -12 52 -23 57 -24 4 -1 9 -3 12 -4 3 -1 8 -3
13 -4 34 -8 50 -19 46 -31 -8 -19 29 -38 44 -23 8 8 22 7 52 -7 40 -18 40 -19
41 -74 1 -125 10 -364 24 -691 5 -105 14 -270 20 -340 3 -36 7 -101 10 -145 3
-44 8 -105 10 -135 3 -30 7 -89 10 -130 3 -41 7 -95 10 -120 3 -25 8 -70 11
-100 5 -51 7 -76 18 -205 4 -56 17 -160 21 -184 2 -9 4 -19 4 -23 1 -5 7 -7
14 -5 6 1 12 -7 12 -18 0 -33 14 -47 36 -35 15 9 17 15 9 29 -11 22 8 35 30
21 7 -4 24 -6 38 -4 19 4 23 1 18 -11 -3 -9 -6 -21 -6 -27 0 -7 -14 -8 -36 -5
-30 5 -37 3 -41 -13 -8 -30 -76 -56 -197 -74 -21 -4 -41 -8 -45 -10 -3 -2 -22
-7 -41 -10 -19 -3 -60 -13 -90 -22 -30 -9 -56 -16 -57 -15 -4 1 -75 -25 -126
-46 -31 -13 -39 -23 -47 -57 -6 -23 -15 -49 -20 -59 -19 -32 32 -39 280 -40
115 0 328 10 385 18 55 7 210 27 237 30 15 1 39 10 52 19 21 13 24 21 19 51
-4 23 -2 35 6 35 6 0 11 5 11 11 0 6 -8 9 -18 7 -14 -4 -21 4 -31 36 -7 23
-19 55 -26 71 -15 32 -18 49 -16 78 1 16 9 17 80 12 l79 -5 7 53 c4 28 9 61
11 72 2 10 6 37 9 60 3 22 8 58 11 80 3 22 8 54 10 70 2 17 6 50 9 75 3 25 8
54 10 65 2 11 4 24 4 29 1 5 7 4 14 -3 10 -8 17 -7 25 1 25 25 8 46 -31 39 -5
-1 -6 6 -3 16 4 15 13 91 21 177 1 11 7 22 13 24 15 5 16 38 2 47 -6 4 -8 9
-6 13 2 4 7 43 11 87 4 44 9 100 11 125 13 146 16 181 19 240 20 330 20 554 1
895 -5 78 -22 240 -28 262 -1 4 7 28 18 53 27 59 47 136 61 234 9 68 9 726 -1
891 -18 304 -26 412 -42 590 -4 39 -8 102 -10 140 -1 39 -3 70 -4 70 -4 0 -10
45 -16 115 -3 41 -8 78 -10 81 -2 4 5 17 16 29 15 17 17 26 9 36 -6 8 -15 11
-20 8 -5 -3 -10 1 -10 8 -2 20 -6 49 -13 93 -3 22 -8 63 -11 90 -12 107 -15
116 -43 113 -21 -3 -27 3 -39 36 -7 22 -15 49 -17 60 -2 12 -9 41 -16 66 -21
79 -22 77 27 100 25 12 51 19 59 16 21 -8 47 59 47 120 -1 30 -2 55 -3 57 -1
1 -3 27 -5 57 -5 78 -15 182 -20 200 -2 8 -6 26 -9 40 -3 14 -12 50 -21 80 -9
30 -17 60 -19 65 -16 66 -57 125 -86 125 -5 0 -16 9 -24 21 -14 20 -41 18 -34
-3 2 -6 -8 -23 -23 -39 -19 -21 -30 -50 -44 -116 -31 -160 -38 -258 -39 -603
0 -151 -4 -278 -9 -281 -5 -3 -21 -5 -37 -3 -15 2 -33 -2 -38 -9 -20 -25 -135
-392 -167 -532 -1 -5 -4 -17 -8 -25 -3 -8 -10 -42 -17 -75 -18 -95 -21 -107
-31 -155 -6 -25 -12 -56 -14 -70 -2 -14 -7 -41 -10 -60 -4 -19 -8 -46 -10 -60
-1 -14 -5 -38 -8 -55 -6 -26 -11 -66 -21 -155 -2 -14 -7 -52 -10 -85 -8 -59
-18 -194 -17 -227 0 -23 -28 -28 -62 -11 -15 8 -32 11 -38 7 -17 -10 -30 18
-16 34 9 11 7 17 -8 28 -16 12 -21 12 -35 -1 -9 -8 -20 -15 -24 -15 -10 0 -36
-27 -36 -38 0 -4 -26 -7 -57 -4 -32 2 -75 5 -96 6 -44 1 -43 -5 -12 134 3 12
7 32 10 45 3 12 7 40 10 62 3 22 7 54 9 70 6 42 18 151 22 205 5 73 5 382 0
417 -5 33 14 60 34 48 5 -3 10 1 10 11 0 12 -6 15 -21 11 -24 -6 -26 -1 -33
83 -3 36 -8 84 -11 108 -3 23 -7 59 -9 80 -4 33 -8 61 -31 192 -3 19 -8 44 -9
55 -10 56 -71 282 -100 370 -28 84 -31 101 -20 113 27 27 16 52 -32 73 -32 13
-50 16 -59 9 -8 -6 -18 -5 -31 4 -16 12 -17 17 -6 37 7 13 27 40 43 59 45 51
60 85 56 126 -6 51 -37 79 -85 76 -36 -2 -38 -1 -39 25 -1 33 -11 158 -13 158
-1 0 -3 11 -6 25 -14 86 -15 90 -33 90 -11 0 -23 -11 -30 -27z m607 -2655 c19
-19 14 -25 -18 -20 -31 4 -39 17 -17 25 19 8 22 8 35 -5z"/>
<path d="M21137 14096 c-54 -20 -120 -78 -141 -124 -15 -32 -24 -41 -45 -41
-30 0 -40 -2 -103 -21 -27 -8 -48 -18 -48 -22 0 -4 -7 -8 -15 -8 -8 0 -15 -3
-15 -8 0 -4 -15 -15 -33 -25 -33 -18 -156 -131 -189 -174 -24 -31 -70 -137
-73 -165 -1 -19 -17 -18 -33 2 -14 17 -30 23 -62 24 -39 1 -46 -3 -66 -31 -25
-37 -25 -78 1 -139 15 -36 15 -40 -1 -49 -54 -31 -179 -132 -221 -179 -27 -29
-62 -79 -79 -110 -16 -31 -32 -56 -36 -56 -7 0 -191 127 -228 157 -8 7 -44 35
-80 63 -36 28 -91 74 -123 102 -32 29 -67 59 -78 69 -10 9 -19 23 -19 31 0 8
-5 19 -11 25 -7 7 -13 50 -14 100 -1 48 -6 103 -10 121 -7 29 -5 32 16 33 13
1 28 1 32 0 5 -1 7 4 5 11 -5 13 -10 15 -55 17 -14 1 -33 17 -51 44 -59 84
-154 159 -232 182 -14 4 -31 16 -38 26 -7 11 -18 19 -24 19 -6 0 -18 9 -28 20
-45 52 -220 39 -220 -16 0 -18 -48 -22 -136 -12 -43 5 -104 -13 -104 -31 0 -7
-29 -10 -77 -9 -84 1 -231 -10 -246 -19 -5 -3 -19 5 -31 16 -28 27 -96 40 -96
20 0 -9 -13 -15 -38 -15 -75 -3 -112 -20 -158 -73 -30 -34 -70 -151 -99 -292
-3 -15 -7 -46 -20 -156 -3 -24 -7 -125 -10 -225 -8 -315 -16 -582 -20 -618 -1
-19 -3 -47 -4 -61 l-1 -27 -62 20 c-131 41 -245 29 -286 -30 -23 -34 -58 -116
-68 -162 -9 -39 -9 -747 0 -882 21 -326 25 -349 68 -411 42 -60 74 -65 228
-32 34 7 120 24 145 29 11 3 43 10 70 16 28 6 57 13 65 15 8 2 44 11 80 20 36
9 70 18 75 19 34 8 163 48 180 57 13 7 12 3 -5 -11 -14 -11 -31 -25 -37 -30
-7 -6 -13 -8 -13 -4 0 4 -10 -2 -22 -13 -13 -11 -68 -50 -123 -86 -55 -37
-105 -70 -110 -74 -183 -144 -338 -295 -404 -394 -39 -58 -42 -68 -38 -110 5
-41 37 -107 71 -146 29 -33 36 -43 36 -53 0 -5 4 -10 9 -10 5 0 26 -34 46 -75
38 -80 75 -129 107 -146 47 -25 136 -18 218 17 61 27 345 167 350 173 3 3 21
15 40 25 19 10 50 28 68 39 l34 20 -7 -51 c-11 -87 -18 -193 -29 -457 -3 -71
-8 -155 -11 -185 -2 -30 -7 -93 -10 -140 -3 -47 -7 -98 -9 -115 -2 -16 -7 -64
-10 -105 -4 -41 -9 -88 -11 -105 -10 -74 -15 -125 -20 -189 -4 -38 -7 -74 -8
-80 -1 -7 16 -11 41 -11 23 0 42 -4 42 -8 0 -5 17 -6 38 -2 72 15 102 13 126
-6 13 -10 26 -15 30 -11 11 10 26 -20 26 -51 0 -16 5 -37 10 -48 8 -15 7 -19
-5 -19 -8 0 -15 6 -15 14 0 8 -7 16 -15 20 -16 6 -32 -35 -21 -53 12 -19 -13
-21 -26 -2 -8 11 -26 23 -41 26 -23 6 -27 4 -24 -11 1 -11 6 -25 10 -31 6 -9
1 -13 -15 -14 -121 -5 -179 -12 -216 -25 -57 -21 -118 -102 -79 -105 74 -7
557 -3 574 5 19 7 22 15 18 44 -2 19 -9 39 -14 46 -5 6 -10 16 -11 21 -3 12
-6 21 -17 60 -5 17 -6 41 -2 55 4 14 8 21 8 15 1 -5 6 -3 11 5 5 8 7 27 5 43
-4 17 -1 27 7 28 81 7 100 4 109 -19 5 -14 14 -20 20 -16 18 10 4 -89 -22
-161 -27 -76 -32 -112 -17 -121 16 -10 576 -11 591 -2 9 6 9 12 0 28 -16 25
-17 43 -2 34 16 -9 175 -17 389 -18 197 -1 183 -8 165 84 -15 78 -14 216 3
213 6 -2 12 0 12 5 0 4 27 7 60 6 l60 -1 1 31 c1 17 3 40 4 51 1 11 3 27 3 36
2 11 14 15 42 16 38 1 40 -1 41 -31 1 -17 2 -35 4 -41 1 -5 3 -20 3 -32 2 -15
7 -21 20 -18 10 2 58 6 108 10 49 4 92 9 97 12 12 7 7 -209 -7 -269 -11 -44
-11 -59 -2 -67 18 -15 488 -3 592 14 35 6 65 52 57 86 -5 17 -17 19 -142 19
-75 0 -147 2 -161 4 -14 3 -42 7 -62 10 -65 10 -143 40 -143 56 -1 25 25 144
33 152 4 3 34 9 67 12 33 4 76 9 95 12 33 5 91 12 116 13 10 1 12 81 3 127 -6
33 4 41 64 53 34 7 66 12 71 11 12 -2 26 21 26 42 0 25 -31 30 -99 14 -70 -16
-74 -14 -77 54 -1 44 0 45 35 55 29 9 36 16 36 35 0 22 -4 25 -40 26 -39 0
-40 1 -45 40 -11 78 -7 107 15 109 11 1 40 5 65 9 25 4 59 10 75 12 17 3 36
11 44 19 12 12 12 16 1 31 -14 16 -58 16 -173 -2 -41 -6 -43 -4 -51 61 -5 41
1 59 19 61 6 1 38 7 72 14 46 9 64 18 69 32 8 25 -24 50 -47 37 -9 -4 -18 -6
-21 -4 -2 2 -27 -2 -54 -9 -36 -9 -51 -10 -51 -2 -1 6 -4 41 -8 79 -3 37 -3
68 2 68 4 1 24 3 43 5 19 2 46 6 60 8 14 1 33 4 42 4 25 3 34 43 13 58 -9 7
-22 11 -28 8 -7 -2 -33 -6 -58 -7 -25 -2 -50 -7 -55 -10 -22 -13 -35 12 -37
73 -2 69 -6 65 73 75 19 2 46 7 60 10 14 3 41 8 60 11 54 8 60 12 60 38 0 39
-10 39 -160 11 -14 -3 -44 -7 -67 -10 -39 -4 -43 -3 -44 18 -2 35 -8 90 -13
120 -3 15 -2 27 2 28 15 2 79 7 125 10 53 3 72 18 62 49 -6 19 -13 21 -103 18
l-95 -3 -4 50 -4 50 88 3 c97 3 127 17 107 50 -10 14 -26 17 -108 15 -83 -1
-96 1 -97 15 -2 39 -8 85 -13 97 -7 19 13 31 59 34 79 6 110 8 123 10 8 0 12
11 10 29 l-3 27 -97 -1 c-82 0 -98 2 -99 15 -1 9 -3 36 -4 61 -2 25 -5 64 -8
87 -3 24 -2 45 3 48 8 5 30 8 139 20 30 3 57 7 60 9 3 2 33 7 66 11 33 3 63
11 66 17 9 14 -1 49 -12 42 -5 -3 -9 0 -9 6 0 6 -4 9 -8 6 -4 -3 -35 -8 -68
-11 -32 -4 -75 -9 -94 -11 -19 -2 -61 -7 -92 -12 -39 -6 -58 -5 -61 2 -8 25
-8 146 0 147 4 0 71 2 147 5 99 2 142 7 148 16 10 16 10 20 -2 38 -8 12 -34
14 -153 12 l-145 -3 3 28 c3 43 34 141 46 149 6 3 46 8 90 10 88 3 99 7 99 33
0 31 -19 39 -82 34 -59 -5 -60 -5 -46 16 7 11 16 21 19 21 3 0 14 18 25 40 21
46 29 49 135 53 84 4 99 10 99 37 0 33 -25 37 -167 25 -30 -2 -43 1 -43 9 0 7
-8 20 -18 29 -17 16 -21 15 -63 -11 -24 -15 -61 -29 -82 -31 l-37 -3 3 124 c2
69 6 129 9 134 3 5 9 25 12 44 10 61 17 94 20 98 3 2 196 -119 232 -145 5 -4
21 -14 35 -22 64 -38 185 -111 194 -118 13 -11 64 -38 225 -121 154 -79 332
-155 470 -202 52 -18 104 -36 115 -40 11 -5 31 -11 45 -14 14 -3 77 -19 140
-35 63 -17 140 -35 170 -41 30 -5 82 -14 115 -20 33 -5 69 -12 80 -14 19 -4
128 -17 255 -31 91 -11 180 -14 181 -7 0 4 3 43 5 87 10 163 12 190 13 204 1
17 52 8 116 -20 29 -13 62 -19 88 -17 l42 3 -1 -100 c0 -55 -4 -172 -9 -260
-4 -88 -9 -182 -10 -210 -1 -27 -6 -95 -10 -150 -4 -55 -8 -152 -10 -217 l-3
-116 28 -12 c16 -7 33 -13 37 -14 4 0 8 31 9 69 5 139 14 266 19 276 4 5 1 9
-5 9 -6 0 -8 5 -4 12 5 7 9 30 10 52 1 22 5 80 9 130 11 164 16 279 19 431 2
123 6 156 21 185 36 69 20 178 -35 238 -11 12 -17 27 -14 35 3 8 -5 21 -18 29
-33 22 -102 15 -141 -15 -26 -19 -41 -23 -82 -20 -27 2 -51 6 -54 9 -3 2 -6
21 -7 42 -1 20 -2 41 -3 46 -1 4 -34 5 -73 1 -205 -20 -386 -25 -438 -13 -19
4 -51 11 -70 14 -19 3 -48 9 -65 14 -58 17 -110 30 -135 35 -23 4 -130 31
-315 81 -11 3 -29 7 -40 9 -11 3 -51 14 -90 25 -38 12 -77 23 -85 25 -108 24
-679 210 -694 225 -6 6 -19 10 -31 10 -11 0 -31 7 -43 16 -12 8 -22 12 -22 8
0 -3 -7 -1 -15 6 -10 8 -12 17 -6 24 5 6 25 54 46 106 21 52 42 101 47 108 6
6 8 12 4 12 -5 0 22 77 44 125 9 20 24 73 35 128 3 15 9 26 14 23 12 -8 103
44 128 73 51 58 31 125 -36 123 l-30 -1 44 58 c75 99 123 229 119 323 -2 44
-23 119 -45 159 -8 15 -4 27 21 57 125 155 -10 363 -193 298z m-2125 -105 c36
-20 45 -41 15 -35 -12 3 -60 7 -107 9 -47 2 -87 4 -89 4 -2 1 6 10 18 20 28
24 122 25 163 2z m-327 -51 c-25 -11 -78 -13 -71 -2 2 4 24 9 48 10 32 1 38
-1 23 -8z m-262 -134 c41 -7 50 -16 35 -33 -7 -9 -14 -28 -15 -42 -4 -51 -12
-84 -20 -90 -5 -3 -27 -17 -49 -30 -21 -14 -42 -30 -46 -35 -21 -31 -56 59
-56 145 0 96 1 96 67 93 32 -2 70 -5 84 -8z m-468 -150 c16 -14 52 -30 79 -37
62 -14 69 -19 116 -89 l37 -55 -59 -45 c-58 -44 -59 -46 -57 -90 4 -74 82
-275 112 -288 4 -2 7 -9 7 -15 0 -31 199 -246 228 -247 6 0 12 -4 12 -9 0 -4
20 -19 45 -32 25 -13 45 -27 45 -31 0 -4 -20 -5 -45 -3 -39 3 -51 0 -76 -23
-26 -23 -31 -37 -36 -88 -10 -110 32 -159 136 -159 l56 0 20 -46 c38 -86 91
-145 165 -181 48 -23 52 -25 75 -27 25 -2 55 -74 74 -178 10 -54 1 -69 -29
-53 -72 39 -211 28 -265 -21 -20 -18 -22 -18 -65 24 -64 61 -209 188 -248 217
-19 14 -39 30 -45 36 -7 6 -57 41 -112 77 -55 37 -105 72 -112 77 -7 6 -15 10
-19 10 -12 0 -119 54 -125 63 -3 4 -5 77 -3 160 2 84 6 287 9 452 3 165 6 305
6 310 0 6 0 19 -1 30 -2 23 8 163 13 185 17 77 24 100 31 100 2 0 16 -11 31
-24z m1460 -463 c73 -67 495 -356 552 -378 2 -1 12 -65 16 -100 1 -11 -2 -19
-8 -19 -5 1 -39 5 -75 8 -67 6 -71 7 -153 25 -68 16 -200 63 -280 101 -51 23
-67 35 -63 47 4 9 0 21 -7 27 -8 6 -22 32 -31 59 -10 26 -33 69 -52 95 -58 81
-60 90 -20 128 19 19 32 34 29 34 -3 0 0 7 7 15 11 13 15 12 39 -4 14 -11 35
-28 46 -38z m15 -758 c146 -17 188 -19 315 -18 77 1 173 8 213 16 39 7 72 11
71 8 0 -3 -18 -33 -40 -66 -21 -33 -43 -69 -48 -80 -10 -24 -48 -64 -80 -85
-23 -15 -53 -41 -170 -142 -36 -31 -67 -53 -69 -48 -6 16 -49 12 -66 -6 -16
-16 -18 -19 -20 -53 -2 -30 -8 -31 -64 -17 -49 14 -53 13 -63 -6 -8 -15 -7
-24 7 -39 10 -11 23 -18 30 -15 6 2 16 0 22 -6 7 -7 -5 -24 -39 -56 -26 -25
-46 -49 -43 -53 16 -26 -7 -2 -41 43 -43 55 -126 115 -175 125 -48 9 -60 38
-65 158 -5 121 -2 131 67 173 67 41 119 88 162 144 15 20 33 35 39 33 7 -3 32
-7 57 -10z m-737 -577 c-14 -14 -27 -18 -40 -14 -15 7 -13 10 17 26 42 22 52
17 23 -12z m4440 -16 c8 -12 -26 -47 -49 -50 -18 -2 -20 2 -16 28 4 25 9 30
33 30 15 0 30 -3 32 -8z m-3688 -1493 c-3 -3 -17 -6 -33 -7 -25 0 -28 3 -25
23 5 22 6 22 33 7 16 -9 27 -19 25 -23z m86 -93 c4 -64 4 -132 1 -142 -2 -7
-20 -11 -45 -9 -23 1 -57 3 -75 4 l-33 1 2 78 c1 42 4 80 5 83 2 3 35 6 74 6
63 -1 70 -3 71 -21z m-36 -219 l39 -2 2 -72 c2 -40 -2 -75 -7 -79 -5 -3 -42 2
-82 11 l-72 17 1 52 c1 28 2 58 3 67 1 13 9 15 39 12 20 -3 55 -5 77 -6z m763
-117 c-1 -35 -4 -41 -22 -38 -17 2 -21 10 -21 41 -1 32 2 37 22 37 20 0 23 -5
21 -40z m-835 -88 c4 -1 32 -6 62 -12 54 -11 55 -12 56 -48 0 -20 1 -67 2
-105 1 -37 0 -68 -3 -68 -3 -1 -19 -2 -36 -4 -47 -3 -64 -12 -64 -34 0 -26 14
-33 61 -33 21 1 39 -2 40 -6 5 -36 6 -133 0 -136 -4 -3 -34 -8 -66 -11 -63 -7
-85 -18 -85 -41 0 -29 61 -37 143 -19 16 3 18 -3 15 -48 l-3 -52 -69 0 c-53 0
-71 -4 -79 -17 -20 -30 7 -46 80 -47 36 0 68 -3 70 -5 4 -4 6 -79 4 -112 -1
-8 -26 -10 -78 -8 -48 2 -82 -1 -91 -8 -12 -10 -13 49 -9 408 3 230 5 420 6
422 1 1 9 -2 19 -7 9 -5 20 -9 25 -9z m841 -105 c1 -75 -1 -86 -16 -90 -26 -7
-33 10 -34 88 -2 73 6 95 33 91 13 -2 16 -18 17 -89z m6 -213 c0 -30 -3 -54
-7 -55 -5 0 -17 -2 -29 -3 -19 -2 -21 3 -22 55 0 52 2 58 21 61 34 6 37 1 37
-58z m1 -131 c5 -39 6 -143 1 -144 -4 -1 -19 -2 -34 -3 l-28 -3 0 76 0 77 30
2 c17 1 30 -1 31 -5z m10 -230 c7 -108 7 -109 -39 -111 l-37 -3 3 66 4 65 34
0 c25 0 34 -4 35 -17z m-865 -189 c16 -2 47 -4 69 -5 66 -1 71 -4 70 -52 -1
-23 1 -47 2 -53 4 -11 73 -15 255 -18 l107 -1 11 -48 c5 -26 10 -52 10 -56 0
-7 -42 -31 -65 -37 -118 -28 -180 -35 -350 -37 -99 -2 -100 -2 -103 -27 -3
-28 -1 -27 -137 -16 -22 2 -53 4 -68 5 -25 1 -26 3 -17 21 24 44 -26 49 -62 6
-18 -22 -22 -16 -18 32 1 17 -4 22 -20 22 -17 0 -21 4 -15 18 8 19 13 39 15
62 1 10 3 11 7 3 2 -7 16 -13 29 -13 21 0 29 10 25 33 -1 9 -1 9 87 11 61 1
72 -1 72 -15 0 -23 23 -40 39 -30 10 6 13 37 12 117 -1 67 2 104 8 95 5 -7 22
-15 37 -17z m-319 -296 c-3 -8 -6 -5 -6 6 -1 11 2 17 5 13 3 -3 4 -12 1 -19z
m-499 -20 c7 -7 12 -15 12 -20 0 -12 -28 2 -34 18 -7 17 6 18 22 2z m592 6 c0
-3 -7 -12 -15 -21 -20 -19 -32 -10 -14 11 14 15 29 21 29 10z"/>
<path d="M14435 14051 c-8 -14 60 -31 147 -37 109 -7 136 -11 213 -24 39 -6
84 -14 100 -16 17 -3 37 -7 45 -10 8 -3 26 -8 40 -10 125 -23 417 -142 428
-175 2 -5 8 -9 12 -9 10 0 65 -36 117 -77 97 -76 333 -325 333 -350 0 -6 4
-13 8 -15 12 -4 82 -114 112 -173 14 -27 28 -52 32 -55 4 -3 9 -15 11 -25 2
-11 14 -42 25 -68 12 -27 25 -61 28 -75 4 -15 10 -32 15 -37 4 -6 10 -22 13
-35 3 -14 24 -94 46 -179 22 -85 43 -170 46 -190 2 -20 7 -47 9 -61 7 -37 23
-183 30 -267 2 -23 6 -75 9 -115 20 -247 27 -347 26 -388 0 -32 1 -33 16 -19
13 14 23 43 40 124 2 11 6 47 9 80 2 33 7 96 11 140 20 253 25 356 26 495 1
116 -9 276 -18 291 -2 4 -6 25 -9 47 -7 57 -52 207 -83 277 -40 93 -141 286
-157 302 -8 8 -15 18 -15 23 0 13 -109 151 -159 201 -52 51 -158 136 -211 168
-47 28 -277 141 -288 141 -4 0 -36 11 -71 24 -34 14 -78 27 -98 31 -19 3 -39
7 -43 10 -18 11 -192 43 -280 50 -115 11 -509 15 -515 6z"/>
<path d="M14332 13979 c-12 -5 -22 -12 -22 -16 0 -11 49 -33 73 -33 10 0 26
-4 35 -9 9 -5 35 -11 57 -14 197 -26 601 -207 723 -324 7 -7 18 -13 23 -13 18
0 284 -273 341 -350 118 -159 245 -378 307 -530 12 -30 26 -64 31 -75 25 -55
58 -145 53 -145 -3 0 -1 -6 4 -12 9 -11 24 -59 25 -78 0 -3 6 -21 14 -40 22
-58 75 -282 89 -375 3 -16 7 -41 10 -55 3 -14 8 -43 10 -65 3 -22 7 -60 10
-85 18 -157 23 -220 25 -355 2 -101 18 -66 35 75 2 14 6 39 9 55 25 141 26
336 1 515 -3 19 -8 67 -11 105 -7 87 -12 123 -18 155 -3 14 -7 41 -10 60 -3
19 -10 58 -16 85 -6 28 -13 64 -16 80 -16 86 -112 347 -175 472 -62 125 -178
308 -242 381 -54 62 -227 232 -272 268 -27 21 -51 42 -53 47 -2 4 -10 7 -17 7
-7 0 -15 3 -17 8 -12 26 -193 119 -293 149 -98 31 -157 46 -180 48 -11 2 -48
8 -81 14 -34 6 -79 13 -100 16 -22 2 -64 7 -94 11 -30 4 -67 8 -82 8 -16 1
-28 4 -28 8 0 4 -6 5 -14 2 -8 -3 -36 -1 -63 4 -27 5 -59 5 -71 1z"/>
<path d="M13934 13934 c-49 -18 -95 -34 -101 -34 -7 0 -13 -5 -13 -12 0 -6 -3
-9 -6 -5 -4 3 -25 -3 -48 -15 -22 -11 -43 -21 -46 -20 -10 1 -242 -108 -250
-117 -3 -3 -21 -15 -40 -25 -39 -21 -172 -107 -180 -116 -3 -3 -25 -21 -50
-40 -52 -40 -49 -38 -126 -111 -195 -187 -322 -401 -400 -674 -9 -33 -18 -69
-20 -80 -1 -11 -6 -38 -9 -60 -14 -81 -13 -319 1 -385 7 -36 16 -78 18 -95 22
-128 104 -327 211 -510 19 -33 38 -67 41 -75 27 -62 190 -235 238 -253 14 -6
17 -16 14 -49 -3 -41 -5 -43 -35 -43 -39 0 -57 -16 -48 -44 4 -13 15 -21 30
-21 25 0 36 -17 30 -47 -16 -77 -13 -73 -58 -73 -45 0 -67 -13 -67 -40 0 -20
33 -40 49 -31 23 15 58 1 56 -22 -2 -26 -13 -27 -78 -11 -26 7 -50 13 -52 13
-3 1 -6 1 -7 2 -2 0 -10 2 -18 4 -8 1 -33 8 -55 13 -37 10 -91 19 -156 26 -51
6 -91 -24 -128 -96 -30 -60 -34 -76 -34 -145 0 -48 6 -92 16 -116 16 -37 16
-38 -6 -46 -12 -5 -48 -21 -81 -35 -32 -14 -65 -26 -72 -26 -8 0 -14 -4 -14
-10 0 -5 -7 -10 -15 -10 -9 0 -102 -43 -208 -95 -280 -138 -337 -170 -413
-236 -24 -20 -40 -26 -65 -23 -61 6 -193 16 -234 17 -35 1 -45 -4 -77 -38 -21
-22 -38 -46 -38 -52 0 -7 -4 -13 -10 -13 -5 0 -10 -6 -10 -13 0 -8 -9 -24 -20
-37 -11 -13 -20 -27 -20 -31 0 -4 -21 -30 -47 -58 -58 -60 -67 -73 -71 -91 -9
-41 -1 -94 22 -145 25 -56 94 -175 106 -185 3 -3 18 -30 33 -60 34 -71 62
-103 112 -131 56 -31 202 -34 345 -8 144 27 162 29 265 35 l90 5 148 -149
c154 -156 195 -210 174 -231 -9 -9 -6 -13 11 -17 13 -4 22 -14 22 -25 0 -11 3
-19 8 -19 4 0 6 -21 5 -47 -1 -27 -2 -54 -2 -62 -1 -7 -7 -11 -15 -8 -17 7
-36 -11 -36 -35 0 -12 -8 -18 -22 -18 -266 -6 -323 -17 -382 -76 -20 -20 -36
-39 -36 -43 0 -4 -11 -13 -25 -19 -33 -15 -35 -59 -2 -71 13 -5 102 -12 198
-16 96 -4 206 -8 244 -10 210 -11 274 -9 296 11 42 38 149 206 159 249 1 6 6
20 11 32 11 29 3 51 -22 58 -10 4 -30 30 -43 58 -13 29 -39 86 -58 127 l-35
75 35 6 c40 7 55 25 41 51 -8 14 -23 18 -67 19 -57 1 -92 5 -96 11 -18 30 -66
134 -66 143 0 11 27 17 143 31 21 2 47 9 58 14 10 6 19 8 19 5 0 -20 32 31 37
57 6 39 -21 79 -69 104 -46 24 -156 26 -232 5 l-65 -18 -36 83 c-19 46 -38 89
-40 96 -4 10 10 13 57 12 74 -2 178 23 240 58 41 23 47 24 84 11 120 -42 252
-36 354 17 63 32 130 107 168 187 18 37 40 81 48 96 8 16 12 32 9 37 -7 11 43
30 95 35 25 3 95 7 155 9 150 7 323 17 365 21 116 12 232 17 228 9 -29 -60
-40 -94 -44 -137 -3 -29 -8 -55 -11 -59 -2 -5 0 -8 4 -8 5 0 9 -9 10 -21 2
-28 38 -95 66 -123 89 -89 204 -118 352 -91 39 8 185 76 185 87 0 4 4 8 10 8
14 0 52 33 130 110 99 100 171 193 215 278 29 56 39 66 70 68 38 2 136 15 148
19 7 2 36 7 65 10 30 3 58 7 62 10 12 8 40 -5 40 -19 0 -6 -14 -28 -30 -48
-94 -114 -94 -252 -1 -315 42 -29 63 -19 81 39 17 59 21 87 24 199 2 54 8 102
14 110 7 8 20 24 30 37 17 23 23 24 154 24 76 0 155 4 176 8 27 5 45 3 57 -7
11 -7 25 -13 32 -13 14 0 46 44 48 68 1 10 5 24 8 32 3 8 9 33 13 55 4 22 8
45 10 50 1 6 4 21 7 35 3 14 13 57 22 95 9 39 18 81 20 95 2 14 4 25 5 25 1 0
3 9 5 20 5 28 21 99 54 240 21 90 25 126 18 143 -13 29 -38 28 -71 -3 -14 -13
-42 -32 -61 -41 -20 -9 -48 -34 -63 -56 -15 -22 -35 -49 -45 -60 -10 -10 -17
-27 -16 -36 1 -9 -4 -30 -11 -47 -7 -16 -14 -32 -15 -35 -12 -49 -20 -69 -37
-86 -11 -12 -18 -30 -17 -40 4 -29 -11 -64 -27 -64 -10 0 -13 -6 -10 -18 5
-14 -2 -22 -27 -34 -51 -24 -58 -14 -41 64 15 72 12 93 -14 103 -21 8 -41 -14
-48 -51 -25 -152 -29 -156 -144 -150 -41 2 -77 5 -80 6 -3 1 -12 3 -20 4 -8 0
-17 16 -21 36 -4 19 -9 45 -12 56 -3 14 2 30 14 43 68 73 102 216 65 273 -26
40 -72 52 -109 30 -61 -35 -80 -106 -62 -222 4 -30 9 -63 10 -74 2 -20 -73
-98 -115 -121 -14 -7 -46 -12 -70 -10 -25 2 -65 4 -90 6 -25 1 -52 8 -60 14
-27 21 -91 55 -103 55 -11 0 -47 36 -217 221 -100 108 -212 229 -257 276 -17
18 -30 33 -29 33 1 0 -20 25 -48 55 -65 70 -76 82 -76 92 0 5 -9 14 -20 21
-11 7 -20 17 -20 23 0 28 -268 267 -310 275 -3 0 -12 3 -20 6 -20 7 -87 26
-130 36 -29 7 -36 14 -42 43 -20 85 -23 81 107 212 159 161 174 180 170 214
-4 32 30 93 50 93 17 0 34 30 28 48 -3 7 5 12 21 12 49 0 68 68 24 91 -18 10
-18 11 6 30 54 43 14 123 -56 114 l-31 -4 36 37 c20 20 43 56 51 79 13 37 13
44 -3 74 -42 78 -175 76 -252 -2 -17 -17 -31 -29 -33 -28 -1 2 -11 24 -21 48
-24 55 -98 132 -156 162 -65 34 -219 34 -349 0 -25 -7 -52 -15 -60 -18 -8 -4
-17 -7 -20 -7 -18 -4 -109 -42 -130 -55 -135 -82 -207 -205 -195 -332 5 -46
28 -105 47 -119 4 -3 9 -17 12 -32 5 -31 -24 -63 -67 -74 -30 -7 -25 -22 9
-29 11 -2 21 -4 24 -5 3 -1 19 -3 35 -4 17 0 31 -4 32 -9 11 -36 40 -71 69
-83 19 -8 34 -21 34 -29 0 -34 35 -77 168 -212 51 -51 97 -91 103 -88 11 8 11
7 -2 -54 l-10 -49 -38 3 c-43 3 -150 15 -196 21 -16 2 -45 8 -62 13 -18 5 -33
8 -33 6 0 -2 -26 7 -57 19 -56 22 -59 26 -95 97 -20 41 -35 75 -33 77 2 2 -3
18 -10 36 -15 35 -22 64 -31 131 -3 22 -9 56 -13 75 -16 75 -4 338 19 415 5
17 11 41 14 55 23 128 198 441 325 584 72 81 174 178 200 188 14 6 57 13 95
14 149 7 308 71 281 114 -3 5 23 24 57 44 35 19 85 55 112 80 27 25 54 48 60
51 8 3 8 7 -1 11 -8 4 -9 13 -2 30 13 36 12 40 -14 57 -22 14 -30 13 -113 -19z
m158 -2668 c24 -13 59 -32 78 -43 50 -27 92 -55 116 -78 12 -11 54 -49 94 -85
131 -116 184 -164 233 -210 l49 -46 -39 -1 c-35 -1 -83 -7 -143 -18 -14 -3
-41 -8 -60 -11 -19 -3 -53 -10 -75 -16 -22 -6 -56 -10 -75 -9 -118 7 -150 10
-160 16 -24 15 -42 71 -44 134 -1 61 1 66 21 69 12 2 24 10 27 18 6 17 -2 43
-15 45 -5 1 -15 2 -21 3 -17 1 -24 96 -7 96 17 0 38 31 32 48 -3 7 -16 18 -29
23 -16 6 -24 16 -24 33 0 13 -3 31 -6 40 -8 21 -2 20 48 -8z m1446 -213 c13
-25 4 -80 -19 -125 -21 -42 -28 -47 -27 -20 0 9 -1 36 -3 59 -2 42 16 103 32
103 5 0 12 -8 17 -17z m-2703 -147 c11 -3 20 -5 20 -6 0 -1 9 -3 20 -5 36 -5
75 -14 82 -18 5 -3 24 -8 43 -11 91 -16 105 -22 102 -41 -8 -41 -42 -72 -103
-95 -34 -12 -67 -23 -73 -24 -6 -1 -20 -7 -31 -13 -11 -5 -45 -19 -75 -29 -30
-10 -71 -26 -90 -36 l-35 -16 -13 31 c-32 73 -9 227 39 261 18 12 63 13 114 2z
m1910 -177 c5 -7 -10 -8 -45 -5 -69 7 -76 16 -12 16 28 0 54 -5 57 -11z m717
-27 c4 -14 -1 -18 -18 -18 -28 0 -31 11 -6 25 9 6 18 11 18 11 1 0 4 -8 6 -18z
m-352 -412 c0 -3 -5 -11 -12 -18 -7 -7 -9 -12 -5 -12 4 0 3 -6 -2 -12 -6 -7
-34 -44 -62 -83 -158 -214 -327 -333 -482 -340 -64 -3 -152 15 -167 34 -3 3
-14 11 -25 17 -10 6 -33 28 -50 48 -27 35 -30 44 -30 109 1 76 22 133 63 170
22 20 36 23 142 31 75 6 141 12 215 21 22 2 72 7 110 10 39 3 86 8 105 11 19
3 64 7 99 9 35 2 65 6 67 8 7 6 34 4 34 -3z m445 -117 c-12 -125 -29 -155 -38
-70 -4 32 25 117 39 117 2 0 2 -21 -1 -47z m-2242 -90 c-57 -138 -135 -215
-239 -239 -41 -9 -143 -7 -183 3 l-35 9 68 48 c38 27 74 62 82 80 14 29 27 35
167 82 84 28 153 52 154 53 1 0 -5 -16 -14 -36z m-1689 1 c55 -3 102 -7 104
-9 2 -2 0 -16 -5 -32 -23 -68 31 -191 142 -319 6 -7 28 -35 50 -64 22 -29 49
-63 60 -75 11 -13 32 -38 47 -57 16 -20 44 -52 63 -73 20 -20 34 -40 31 -42
-3 -3 -29 -7 -58 -9 -29 -2 -66 -6 -83 -8 -16 -3 -47 -8 -69 -12 -21 -3 -48
-8 -60 -10 -183 -41 -319 -32 -368 23 -8 10 -29 43 -45 73 -60 111 -68 125
-75 130 -18 14 -85 162 -83 183 4 34 22 65 45 77 10 5 49 56 86 112 81 123 85
129 103 122 8 -2 59 -7 115 -10z m1260 -121 c-11 -10 -27 -22 -36 -28 -8 -5
-27 -19 -42 -29 -23 -16 -30 -17 -51 -6 -14 7 -25 16 -25 20 0 5 136 54 164
58 6 1 1 -6 -10 -15z m-205 -94 l33 -24 -53 -23 c-37 -16 -80 -25 -139 -28
-91 -6 -103 -2 -114 33 -8 24 -2 26 74 37 19 3 55 12 80 19 58 18 80 15 119
-14z m119 -390 c23 -14 25 -33 4 -35 -7 -1 -13 -2 -14 -4 -6 -4 -82 -17 -157
-26 -47 -6 -49 -5 -59 25 -11 31 -11 31 36 45 57 17 159 14 190 -5z"/>
<path d="M3367 13929 c-22 -13 -22 -26 3 -39 15 -8 21 -6 29 9 14 25 -6 44
-32 30z"/>
<path d="M14156 13873 c-10 -10 -7 -35 3 -28 5 3 12 1 15 -4 3 -4 19 -11 35
-14 123 -25 545 -238 648 -327 13 -11 26 -20 29 -20 7 0 124 -92 178 -140 83
-72 232 -229 287 -300 18 -25 37 -47 41 -50 12 -9 108 -142 163 -225 59 -90
152 -275 190 -380 32 -86 127 -366 126 -372 0 -2 6 -18 15 -38 8 -19 14 -38
15 -42 0 -15 10 -59 25 -109 8 -29 17 -65 19 -80 2 -16 4 -29 5 -29 2 0 6 -19
15 -64 3 -19 7 -37 9 -40 2 -3 7 -24 10 -46 4 -22 8 -47 11 -55 2 -8 6 -28 9
-44 10 -54 27 -141 33 -161 6 -20 6 -20 13 -1 12 36 2 395 -15 496 -2 14 -7
47 -10 74 -3 27 -7 59 -10 70 -2 12 -7 37 -10 56 -12 81 -51 250 -85 365 -12
39 -23 75 -24 80 -2 6 -8 23 -14 38 -7 16 -12 33 -12 38 0 5 -4 17 -9 27 -5 9
-17 37 -27 62 -124 315 -265 541 -449 725 -108 108 -145 139 -253 211 -77 51
-299 164 -322 164 -6 0 -18 5 -28 10 -29 17 -164 70 -178 70 -8 0 -14 4 -14 8
0 5 -6 9 -12 9 -7 1 -56 12 -108 27 -52 14 -111 28 -130 31 -54 10 -177 15
-184 8z"/>
<path d="M3660 13775 c-10 -12 -10 -18 0 -29 16 -20 42 -8 38 17 -4 26 -21 32
-38 12z"/>
<path d="M4240 13775 c-15 -18 -5 -35 20 -35 10 0 22 5 25 10 7 11 -12 40 -25
40 -4 0 -13 -7 -20 -15z"/>
<path d="M3354 13659 c-3 -6 0 -17 8 -25 12 -12 17 -12 32 -1 11 8 16 19 12
25 -9 15 -43 15 -52 1z"/>
<path d="M3656 13523 c-3 -4 -6 -15 -6 -25 0 -22 45 -26 53 -4 6 14 -36 40
-47 29z"/>
<path d="M3354 13399 c-3 -6 0 -18 8 -26 13 -13 17 -12 32 2 9 9 16 21 16 26
0 13 -47 11 -56 -2z"/>
<path d="M3354 13139 c-3 -6 0 -17 8 -25 12 -12 17 -12 32 -1 11 8 16 19 12
25 -9 15 -43 15 -52 1z"/>
<path d="M3354 12878 c-4 -6 1 -17 12 -25 15 -11 20 -11 32 1 8 8 11 19 8 25
-9 14 -43 14 -52 -1z"/>
<path d="M3365 12637 c-22 -17 -12 -37 20 -37 15 0 22 5 21 15 -4 27 -21 36
-41 22z"/>
<path d="M10007 11973 c-2 -1 -21 -5 -43 -8 -21 -4 -64 -13 -94 -21 -30 -8
-63 -17 -72 -19 -41 -9 -190 -86 -239 -122 -201 -149 -296 -328 -314 -589 -16
-227 -25 -950 -12 -1021 5 -33 -4 -40 -50 -34 -7 1 -13 -5 -13 -14 0 -10 9
-15 28 -15 22 0 72 -19 51 -20 -4 0 -2 -24 5 -52 10 -44 9 -59 -4 -90 -13 -33
-19 -37 -50 -36 -102 1 -130 -2 -130 -17 0 -12 15 -15 75 -15 l76 0 -31 -57
c-16 -32 -30 -64 -30 -70 0 -13 -12 -15 -112 -14 -44 0 -58 -4 -58 -15 0 -15
8 -17 88 -16 28 0 52 -1 52 -2 0 -11 -64 -142 -72 -147 -5 -3 -34 -5 -63 -3
-40 3 -55 0 -59 -11 -4 -11 3 -15 24 -16 74 -3 75 -4 72 -28 -1 -13 -12 -37
-23 -53 -26 -36 -24 -38 69 -69 38 -13 60 -25 55 -30 -12 -12 -73 -29 -73 -21
0 8 -97 5 -118 -3 -32 -12 5 -25 74 -25 79 0 85 -4 57 -46 -10 -16 -18 -52
-20 -95 -2 -63 -1 -69 17 -69 11 0 20 -4 20 -10 0 -5 7 -10 15 -10 25 0 64 53
86 117 11 35 25 63 30 63 5 0 5 -10 0 -23 -9 -24 2 -57 15 -44 4 3 15 -3 25
-14 17 -19 19 -20 25 -5 3 9 7 38 9 64 1 26 3 52 4 58 1 11 25 11 51 1 8 -4
33 -13 55 -21 25 -8 39 -19 36 -27 -2 -8 -5 -37 -8 -65 -4 -41 -2 -51 11 -51
10 0 17 10 18 26 1 14 2 35 3 46 1 11 13 38 26 59 25 40 25 40 93 40 l67 1 -6
-45 c-15 -113 -16 -130 -6 -130 15 0 24 20 28 60 2 19 6 44 8 55 2 11 4 28 4
38 1 13 10 17 39 17 37 0 37 0 38 -43 1 -51 12 -187 18 -242 5 -40 13 -121 21
-223 3 -30 7 -57 10 -62 9 -14 -17 -17 -150 -15 -157 2 -186 -8 -210 -69 -9
-23 -23 -49 -32 -58 -10 -11 -13 -28 -9 -55 3 -21 5 -41 6 -46 0 -4 28 -7 63
-7 34 0 78 -2 97 -3 19 -2 44 1 55 6 13 7 20 6 22 0 6 -18 115 -4 138 18 20
18 21 18 32 0 8 -13 25 -18 67 -19 48 0 58 3 67 21 8 13 13 116 16 291 3 149
5 314 6 366 1 55 6 95 12 95 6 0 8 -85 6 -240 -7 -414 -5 -503 9 -520 21 -25
130 -17 130 11 0 8 5 14 10 14 6 0 10 -4 10 -8 0 -16 57 -37 95 -35 40 2 53 2
135 2 170 0 160 -3 165 61 2 28 -2 43 -16 56 -10 9 -19 24 -19 33 0 26 -29 60
-63 74 -21 9 -80 14 -171 14 -76 1 -142 5 -146 10 -5 4 5 75 21 158 16 82 32
168 35 190 3 22 7 47 9 55 2 8 7 40 11 70 4 30 9 58 10 63 1 4 2 12 3 18 0 5
6 7 11 4 6 -3 16 -3 22 1 7 5 37 9 67 9 49 2 55 -1 70 -27 14 -24 20 -27 46
-22 61 14 60 14 60 -58 0 -65 5 -75 31 -60 15 10 37 69 30 81 -4 5 -2 12 3 15
9 6 18 -11 26 -55 18 -92 72 -176 98 -150 6 6 18 11 27 11 12 0 18 10 19 33 6
75 0 113 -28 168 l-29 58 27 3 c14 2 49 1 76 -2 66 -7 95 -2 95 16 0 11 -16
14 -67 15 l-68 1 48 15 c52 16 52 13 32 103 -7 35 -12 67 -9 71 2 3 15 5 28 4
14 -2 30 3 37 11 12 15 10 16 -50 18 -20 1 -27 10 -42 53 -10 29 -14 55 -11
57 7 4 25 3 180 -8 50 -4 62 -2 62 9 0 8 -3 16 -7 16 -11 2 -56 6 -153 13 -47
4 -88 10 -91 14 -4 4 -18 49 -32 100 l-25 92 31 1 c18 0 56 0 85 -1 41 -1 52
2 52 14 0 17 -18 19 -121 17 -54 -2 -57 0 -65 26 -12 45 -7 108 12 144 10 19
17 37 16 40 0 4 10 42 24 85 14 44 29 97 34 119 4 22 11 51 14 65 24 106 28
128 42 225 3 22 8 51 10 65 19 103 26 525 12 660 -21 194 -73 323 -166 415
-60 60 -172 129 -252 154 -41 13 -82 26 -90 29 -8 3 -26 7 -40 9 -32 4 -289
10 -293 6z m-401 -2478 c-4 -25 -9 -51 -12 -58 -3 -10 6 -13 33 -13 25 1 38
-3 37 -12 -1 -6 -2 -24 -2 -40 -2 -27 -3 -27 -67 -27 -63 0 -64 0 -58 25 3 14
9 30 13 35 7 10 18 47 26 94 6 31 12 41 25 41 7 0 8 -17 5 -45z m724 -27 c6
-24 15 -60 21 -81 5 -20 8 -41 5 -46 -3 -4 -27 -7 -53 -6 l-48 1 0 45 c0 39 2
44 23 43 22 -1 28 17 23 69 -4 35 19 16 29 -25z m-589 -43 c0 0 2 -18 5 -41 5
-40 4 -41 -26 -42 -31 -1 -31 0 -26 36 3 20 5 39 6 42 0 4 35 9 41 5z"/>
<path d="M4216 9132 c-3 -3 -6 -14 -6 -24 0 -24 43 -21 48 3 3 16 -31 33 -42
21z"/>
<path d="M4216 8872 c-3 -3 -6 -14 -6 -24 0 -13 7 -18 25 -18 18 0 25 5 25 19
0 18 -33 35 -44 23z"/>
<path d="M4216 8612 c-3 -3 -6 -14 -6 -24 0 -13 7 -18 25 -18 18 0 25 5 25 19
0 18 -33 35 -44 23z"/>
<path d="M3947 8477 c-7 -20 1 -27 30 -27 18 0 24 5 21 18 -4 21 -43 28 -51 9z"/>
</g>
</svg>
