<svg width="1440" height="415" viewBox="0 0 1440 415" fill="none" xmlns="http://www.w3.org/2000/svg">
<g clip-path="url(#clip0_1_1355)">
<path d="M0 0H1440V415H0V0Z" fill="#163A24"/>
<g clip-path="url(#clip1_1_1355)">
<path d="M1462.76 541.404C1397.43 550.694 1327.88 510.963 1288.93 442.093C1287.13 438.919 1285.32 435.36 1285.49 431.512C1285.96 421.064 1298.75 420.657 1303.48 412.237C1310.31 400.073 1296.33 385.426 1284.72 381.049C1268.79 375.034 1251.12 370.684 1239.98 354.873C1225.74 334.629 1228.07 303.937 1234.51 278.875C1240.95 253.814 1250.72 228.891 1248.5 202.343C1246.75 181.659 1240.45 153.668 1255.45 145.848C1264.56 141.103 1274.9 149.19 1282.28 158.028C1306.08 186.537 1321.29 227.36 1350.09 246.964C1370.5 260.859 1394.77 261.772 1415.83 273.974C1439.38 287.619 1456.94 314.279 1469.98 342.61C1481.28 367.115 1489.99 394.343 1490.36 422.306C1490.72 450.269 1481.67 479.068 1463.39 494.116" fill="#194429"/>
<path d="M1300.44 715.476C1335.8 683.676 1366.19 644.596 1390.22 600.048C1403.79 574.858 1415.23 548.109 1426.13 521.126C1433.84 502.046 1441.38 482.643 1445.42 461.998C1449.16 442.934 1449.86 423.213 1450.09 403.621C1450.49 370.484 1449.62 337.376 1447.5 304.299C1444.99 265.002 1440.42 224.854 1424.92 190.129C1419.65 178.3 1412.15 166.404 1401.24 163.43C1385.59 159.153 1371.21 174.925 1362.23 190.915C1349.42 213.748 1340.86 239.528 1332.77 265.264C1305.29 352.651 1281.64 444.761 1287.95 537.823" fill="#198C36"/>
<path d="M1371.96 527.158C1378.95 504.992 1385.01 482.444 1390.15 459.514C1395.28 436.583 1399.45 413.378 1402.66 389.898C1405.88 366.507 1408.15 342.974 1409.45 319.297C1410.76 295.62 1411.08 271.934 1410.44 248.239C1409.78 224.497 1408.15 200.783 1405.53 177.231C1405.22 174.301 1404.88 171.37 1404.51 168.437C1404.05 164.722 1399.33 166.087 1399.78 169.779C1402.61 193.071 1404.47 216.519 1405.34 240.035C1406.21 263.515 1406.11 287.006 1405.05 310.509C1403.98 334.055 1401.96 357.515 1398.98 380.887C1396.02 404.07 1392.12 427.038 1387.26 449.79C1382.39 472.542 1376.61 494.988 1369.89 517.128C1369.05 519.909 1368.19 522.693 1367.31 525.481C1366.19 528.973 1370.85 530.65 1371.96 527.158Z" fill="#153A23"/>
<path d="M1410.27 249.453C1413.67 236.855 1414.14 233.926 1419.3 222.264C1419.91 220.877 1426.93 205.929 1425.76 205.066C1424.71 204.281 1418.63 213.687 1418.01 215.091C1412.66 227.181 1409.15 234.7 1405.62 247.76C1404.66 251.307 1409.3 253.001 1410.27 249.453Z" fill="#153A23"/>
<path d="M1409.56 321.502C1413.13 304.544 1414.66 298.111 1420.21 282.016C1420.71 280.563 1428.32 263.688 1427.16 263.259C1425.8 262.763 1421.63 269.853 1420.9 271.167C1408.33 293.673 1408.47 302.845 1404.89 319.804C1404.14 323.435 1408.78 325.145 1409.56 321.502Z" fill="#153A23"/>
<path d="M1404.9 372.427C1410.1 352.447 1416.13 332.793 1422.96 313.538C1424.88 308.136 1424.81 308.097 1426.86 302.762C1427.42 301.336 1430.67 290.821 1429.47 289.925C1428.45 289.173 1422.3 300.985 1421.74 302.422C1414.33 321.742 1410.72 333.42 1404.95 353.536C1403.31 359.239 1401.75 364.968 1400.25 370.723C1399.31 374.315 1403.97 376.014 1404.9 372.427Z" fill="#153A23"/>
<path d="M1397.74 417.243C1407.6 402.841 1419.63 381.333 1426.73 364.748C1437.98 338.416 1426.04 353.609 1422.6 361.685C1415.69 377.835 1406.42 392.343 1396.83 406.35C1395.99 407.564 1395.76 409.235 1396.74 410.471C1397.56 411.501 1396.24 415.094 1397.08 413.868L1397.74 417.243H1397.74Z" fill="#153A23"/>
<path d="M1351.71 439.977C1294.78 454.958 1232.85 439.849 1185.22 399.372C1165.98 383.026 1148.17 360.76 1144.38 332.758C1143.95 329.583 1143.8 325.986 1145.51 323.513C1146.95 321.463 1149.26 320.739 1151.43 320.238C1202.17 308.353 1252.22 344.915 1289.49 388.127C1280.96 363.6 1276.71 337.225 1277.02 310.642C1277.11 303.051 1279.38 293.194 1285.67 292.96C1289.57 292.815 1292.62 296.758 1295.08 300.434C1318.8 336.116 1337.02 376.608 1348.89 420" fill="#1F7A36"/>
<path d="M1145.17 324.259C1170.24 316.546 1196.9 321.792 1220.45 333.766C1244.89 346.191 1266.1 365.895 1285.45 387.453C1296.64 399.912 1307.29 413.072 1317.92 426.193C1320.27 429.095 1324.17 425.519 1323.17 421.972C1314.78 391.981 1306.1 362.097 1297.98 331.995C1291.66 308.537 1288.79 313.171 1293.92 333.849C1301.44 364.18 1308.6 394.554 1317 424.522L1322.25 420.301C1303.07 396.581 1283.73 372.717 1261.43 353.186C1239.62 334.106 1214.81 319.269 1187.94 314.435C1172.97 311.745 1157.74 312.285 1143.06 316.808C1141.35 317.331 1140.49 319.91 1141.02 321.82C1141.63 323.953 1143.46 324.783 1145.17 324.259Z" fill="#163A24"/>
<path d="M1357.27 431.623C1333.51 431.572 1309.85 427.999 1286.82 420.986C1263.76 413.989 1241.49 403.649 1220.5 390.193C1208.75 382.669 1203.57 382.853 1190.48 371.197C1189.1 369.938 1175.43 357.274 1174.18 358.994C1173.1 360.465 1180.93 369.387 1182.37 370.645C1202.04 387.911 1223.39 402.199 1245.96 413.189C1268.61 424.222 1292.29 431.89 1316.49 436.023C1330.14 438.325 1343.9 439.482 1357.69 439.487C1361.86 439.487 1361.46 431.623 1357.27 431.623Z" fill="#194429"/>
<path d="M1209.67 365.294C1227.86 379.601 1241.77 400.129 1258.14 417.088C1261.33 420.39 1272.58 420.702 1269.38 417.394C1252.53 399.99 1236.44 379.167 1217.73 364.447C1216.25 363.283 1203.12 355.425 1202.38 357.174C1201.5 359.212 1208.19 364.13 1209.67 365.294Z" fill="#194429"/>
<path d="M1258.22 385.766C1271.94 401.627 1277.13 414.542 1291.32 428.02C1294.61 431.144 1309.53 432.13 1306.22 428.983C1292.02 415.511 1276.24 396.554 1262.84 381.957C1250.26 368.256 1242.5 366.881 1258.22 385.766Z" fill="#194429"/>
<path d="M1193.98 275.072C1193.65 269.324 1193.74 259.077 1194.28 253.352C1194.39 252.238 1194.82 250.818 1195.75 250.912C1196.6 250.985 1196.89 252.293 1196.97 253.307C1197.5 259.712 1198.01 266.127 1198.49 272.554C1203 270.139 1207.93 269.081 1212.85 269.475C1212.99 269.488 1213.12 269.546 1213.23 269.642C1213.34 269.739 1213.43 269.87 1213.49 270.023C1213.54 270.175 1213.56 270.342 1213.54 270.507C1213.53 270.671 1213.47 270.826 1213.38 270.956C1211.35 273.987 1208.58 276.184 1205.47 277.244C1204.34 277.617 1203.06 277.973 1202.5 279.204C1202.14 280 1202.23 280.958 1202.3 281.855C1202.74 287.412 1202.57 293.016 1201.79 298.518C1201.75 298.729 1201.66 298.923 1201.53 299.073C1201.4 299.223 1201.24 299.322 1201.06 299.359C1200.89 299.395 1200.71 299.366 1200.54 299.275C1200.38 299.185 1200.24 299.038 1200.15 298.852C1197.96 294.597 1198.21 288.711 1196.71 283.815C1196.58 283.247 1196.31 282.742 1195.93 282.373C1195.38 282.04 1194.75 281.947 1194.14 282.111C1189.44 282.725 1184.7 282.911 1179.98 282.668C1178.7 282.596 1176.95 281.649 1177.48 280.284C1177.68 279.879 1177.98 279.557 1178.33 279.365C1180.76 277.715 1183.44 276.652 1186.21 276.236L1193.98 275.072Z" fill="#FBC8B8"/>
<path d="M1419.4 104.095C1420.6 96.4822 1423.61 83.1717 1425.94 75.9317C1426.4 74.5338 1427.33 72.8519 1428.54 73.3532C1429.62 73.7987 1429.64 75.6198 1429.46 76.9732C1428.33 85.5127 1427.17 94.0726 1425.99 102.653C1432.54 101.348 1439.26 101.986 1445.56 104.513C1445.73 104.588 1445.89 104.718 1446 104.89C1446.12 105.062 1446.2 105.269 1446.23 105.489C1446.25 105.709 1446.23 105.933 1446.16 106.139C1446.09 106.345 1445.97 106.524 1445.83 106.657C1442.33 109.774 1438.11 111.504 1433.75 111.608C1432.18 111.608 1430.4 111.569 1429.33 112.945C1428.64 113.842 1428.49 115.117 1428.31 116.286C1427.32 123.704 1425.52 130.93 1422.94 137.773C1422.83 138.032 1422.66 138.247 1422.45 138.39C1422.24 138.532 1422 138.595 1421.76 138.57C1421.52 138.545 1421.3 138.434 1421.11 138.251C1420.92 138.068 1420.79 137.822 1420.72 137.544C1419.07 131.106 1421.06 123.543 1420.48 116.598C1420.47 115.806 1420.26 115.037 1419.87 114.399C1419.32 113.663 1418.43 113.468 1417.62 113.324C1411.32 112.202 1405.11 110.511 1399.02 108.267C1397.38 107.649 1395.37 105.699 1396.45 104.14C1396.82 103.691 1397.29 103.393 1397.81 103.288C1401.45 102.129 1405.24 101.836 1408.97 102.425L1419.4 104.095Z" fill="#FBC8B8"/>
<path d="M1153.96 394.253C1149.9 398.87 1150.9 408.633 1157.86 406.294C1168.12 402.825 1160.91 386.345 1153.96 394.253Z" fill="#F7BC28"/>
<path d="M1315.1 242.725C1311.45 243.098 1308.51 248.617 1312.79 250.845C1319.16 254.142 1321.36 242.096 1315.1 242.725Z" fill="#F7BC28"/>
<path d="M1328.71 189.138C1324.65 193.761 1325.65 203.523 1332.6 201.179C1342.87 197.709 1335.66 181.235 1328.71 189.138Z" fill="#F7BC28"/>
</g>
<g clip-path="url(#clip2_1_1355)">
<path d="M-166 527.954C-116.21 507.034 -70.6911 477.822 -31.5587 441.675C-9.43388 421.22 10.4692 398.709 29.8546 375.813C43.5459 359.663 57.0919 343.094 66.7584 324.42C75.6863 307.156 81.1187 288.482 85.9519 269.797C94.1566 238.186 100.853 206.256 106.041 174.006C112.189 135.707 116.097 96.0368 105.64 58.617C102.08 45.869 95.8744 32.4415 83.5091 26.6662C65.7755 18.368 44.8662 29.5956 30.3897 42.4717C9.73051 60.8503 -6.53741 83.2498 -22.2296 105.699C-75.5235 181.937 -125.333 263.727 -139.484 354.517" fill="#194429"/>
<path d="M-36.4153 366.964C-22.8635 347.657 -10.3373 327.712 1.16323 307.128C12.6638 286.544 23.0748 265.451 32.3963 243.85C41.7216 222.338 49.9224 200.419 56.9988 178.094C64.0752 155.769 69.9922 133.184 74.7499 110.338C79.5075 87.4303 83.0748 64.3328 85.4517 41.0459C85.7425 38.1499 86.0178 35.2483 86.2776 32.3412C86.6033 28.671 80.6243 28.7044 80.2985 32.3412C78.2435 55.3941 74.9903 78.3079 70.5389 101.082C66.0954 123.786 60.4963 146.249 53.7418 168.47C46.9872 190.692 39.0946 212.616 30.064 234.243C21.1186 255.636 11.0799 276.566 -0.0523567 297.031C-11.1846 317.496 -23.3501 337.423 -36.5491 356.811C-38.2125 359.247 -39.8914 361.675 -41.5859 364.096C-43.7379 367.159 -38.5557 370.021 -36.4153 366.964Z" fill="#153A23"/>
<path d="M74.2555 111.453C81.2757 100.314 82.5146 97.6297 91.4192 87.8612C92.4719 86.6973 104.372 74.2778 103.174 73.1361C102.08 72.0891 92.6231 79.4628 91.5413 80.6323C82.311 90.7572 76.3552 97.0115 69.0791 108.568C67.0958 111.731 72.2664 114.605 74.2555 111.453Z" fill="#153A23"/>
<path d="M56.5859 180.244C64.8216 164.973 68.166 159.231 78.5828 145.308C79.5308 144.049 92.5766 129.948 91.2738 129.218C89.7615 128.377 83.1311 134.036 81.9271 135.099C61.6285 153.255 59.6569 162.071 51.4153 177.348C49.653 180.633 54.812 183.529 56.5859 180.244Z" fill="#153A23"/>
<path d="M39.1256 227.733C50.0213 210.015 61.8127 192.847 74.4998 176.228C78.0593 171.572 77.9895 171.528 81.6887 166.972C82.6774 165.753 89.0345 156.569 87.7957 155.383C86.7604 154.397 76.6286 164.037 75.634 165.268C62.2334 181.77 55.2016 191.978 43.6216 209.677C40.318 214.697 37.0997 219.758 33.9667 224.859C31.9892 228.045 37.1772 230.924 39.1256 227.733Z" fill="#153A23"/>
<path d="M20.1008 268.717C35.2695 257.578 54.7014 240.247 67.0667 226.279C86.6848 204.108 68.8116 215.452 62.8267 222.23C50.7988 235.802 36.299 247.214 21.5316 258.035C20.252 258.97 19.5774 260.508 20.4672 261.933C21.2059 263.142 18.7805 266.227 20.0717 265.275L20.1008 268.717Z" fill="#153A23"/>
<path d="M-87.2431 441.948C-61.995 436.696 -38.672 425.441 -17.9721 410.81C2.84993 396.108 20.9383 378.063 36.9445 358.643C56.0333 335.459 72.1966 310.247 88.4122 285.185C103.895 261.237 119.238 236.805 138.001 215.046C153.077 197.57 171.869 180.984 195.116 174.563C197.986 173.777 200.899 173.141 203.841 172.658L199.822 170.804C203.695 177.487 197.862 184.827 192.976 189.611C189.405 193.103 185.368 196.127 181.472 199.268L167.559 210.468C149.409 225.089 131.25 239.71 113.085 254.331C102.895 262.54 97.5436 267.369 87.3478 275.572C85.9635 276.686 80.9209 282.127 81.9213 283.514C82.8577 284.801 85.033 285.675 86.5743 284.695C110.341 269.508 139.377 263.844 167.454 268.917C166.71 266.879 165.965 264.846 165.221 262.791C141.371 283.065 113.995 299.179 84.335 310.402C76.0436 313.533 67.5937 316.263 59.0171 318.584L63.4257 322.176C67.8344 299.047 64.6471 274.782 54.8701 253.245C52.122 247.203 48.8353 241.399 45.0465 235.897C43.2726 233.319 39.6258 233.435 38.3172 236.37C28.9116 257.729 25.4739 281.065 28.3424 304.081C30.7735 323.685 39.1896 346.965 62.3614 350.59C73.2319 352.261 84.1256 348.919 94.9845 350.189C101.894 350.986 110.229 354.645 112.805 361.032C113.794 363.494 113.317 367.008 111.799 369.247C111.009 370.366 109.997 371.325 108.821 372.071C107.414 372.916 105.888 373.567 104.29 374.003C100.404 374.996 96.3745 375.372 92.3614 375.117C88.29 374.944 84.2187 374.56 80.4381 373.446C80.1706 373.363 79.9205 373.268 79.6646 373.168C79.083 372.945 80.1008 373.463 79.3912 373.006C78.7747 372.622 78.1698 372.238 77.5882 371.815C77.0066 371.391 77.5882 371.859 77.1404 371.464C76.8786 371.23 76.6227 371.001 76.3668 370.756C75.6979 370.122 75.0581 369.453 74.4416 368.768C71.9182 365.881 69.5648 362.862 67.3924 359.724C63.1931 353.87 59.0578 347.037 52.8519 342.905C51.5656 342.03 50.1339 341.371 48.6177 340.955C44.0985 339.808 41.772 346.43 46.3261 347.599C46.6285 347.677 46.9077 347.772 47.2276 347.867C47.5475 347.961 48.2862 348.385 47.5068 347.961C48.1316 348.296 48.7338 348.668 49.3098 349.075C50.4492 349.952 51.5006 350.929 52.4506 351.994C55.0846 354.95 57.5244 358.06 59.7557 361.305C64.0364 367.264 68.259 374.388 74.7092 378.464C77.9953 380.553 82.0725 381.06 85.8996 381.589C90.4078 382.218 94.9772 382.341 99.5153 381.956C107.809 381.232 116.563 377.835 119.628 369.815C122.85 361.383 118.086 353.141 110.717 348.485C107.021 346.178 102.896 344.573 98.5673 343.757C93.2105 342.738 87.8305 343.044 82.4156 343.456C71.7022 344.275 60.4246 345.539 51.4211 338.728C43.7379 332.908 39.7887 323.256 37.596 314.39C32.1345 292.236 34.1993 268.104 41.993 246.713C42.9934 243.98 44.0849 241.279 45.2675 238.609L38.5382 239.083C51.51 257.974 58.3095 280.137 58.069 302.745C57.9839 309.155 57.3361 315.547 56.1322 321.853C55.7193 324.025 58.4587 326.008 60.5409 325.451C92.2232 316.855 122.078 302.985 148.738 284.478C156.123 279.353 163.236 273.877 170.048 268.071C172.672 265.843 170.787 262.501 167.821 261.944C145.202 257.901 121.442 260.747 100.353 269.541C94.397 272.03 91.3319 273.439 85.917 276.909C87.2664 278.825 85.9868 282.3 87.3303 284.216C106.225 268.993 125.124 253.771 144.027 238.548L172.369 215.714L186.817 204.08C190.806 200.861 194.959 197.77 198.519 194.122C205.335 187.188 211.786 177.142 206.307 167.674C205.93 166.996 205.337 166.451 204.614 166.117C203.891 165.784 203.076 165.679 202.288 165.819C177.592 169.924 156.834 184.755 140.205 202.019C120.919 222.096 105.617 245.526 90.57 268.572C74.0927 293.873 58.1621 319.536 39.7538 343.573C24.178 363.895 6.65373 382.897 -13.7553 398.864C-33.1815 414.063 -55.3819 426.443 -79.6355 432.959C-82.6425 433.767 -85.6844 434.48 -88.7321 435.12C-93.3443 436.056 -91.8437 442.9 -87.2431 441.948Z" fill="#1F7A36"/>
<path d="M-3.99573 497.385C3.79799 512.132 11.8941 526.679 24.2012 537.428C39.6956 550.961 58.2319 561.888 79.8507 563.809C101.47 565.73 126.537 557.293 142.468 538.541C145.679 534.76 148.61 530.266 148.802 525.671C149.209 515.975 138.414 512.583 130.132 509.308C121.85 506.034 114.399 495.274 121.803 487.884L169.077 502.921C181.216 506.78 194.04 510.662 207.551 507.482C221.062 504.302 235.068 491.331 234.783 477.714C234.201 449.027 182.437 458.974 175.178 432.414C187.433 427.118 200.188 429.568 211.733 432.692C223.278 435.817 235.213 439.543 247.794 436.513C260.374 433.483 273.466 420.73 272.082 408.282C269.831 388.194 234.981 386.145 239.407 365.221C240.983 357.764 247.422 351.771 251.691 345.049C261.078 330.241 266.749 299.014 246.979 286.823C234.422 279.042 211 282.869 199.496 296.235C187.346 310.319 185.7 329.16 177.063 352.829C172.991 364.051 161.156 358.087 156.747 348.697C155.351 345.723 155.531 342.014 155.537 338.483C155.537 321.909 148.017 303.909 131.935 303.692C115.94 303.475 101.702 321.296 97.1307 337.893C92.5591 354.489 94.083 371.23 90.3257 387.916C89.5696 391.257 88.4878 394.838 85.9868 397.433C79.2051 404.473 68.6662 398.581 66.1361 390.411C63.6061 382.241 64.8565 372.294 60.634 365.132C55.7076 356.778 44.1218 354.656 33.8387 358.07C23.5556 361.484 14.5405 369.398 7.14812 378.103C-7.89259 395.857 -17.6347 417.973 -19.967 439.671C-19.967 439.687 -16.5646 473.615 -3.99573 497.385Z" fill="#198C36"/>
<path d="M129.434 126.679C126.747 118.882 123.117 104.686 121.937 96.5438C121.722 94.9622 121.937 92.8124 123.577 92.5507C125.078 92.2889 126.072 93.9653 126.596 95.3353C129.868 103.964 133.116 112.607 136.338 121.266C143.264 116.019 151.421 112.468 160.103 110.918C160.345 110.879 160.594 110.904 160.823 110.989C161.052 111.075 161.252 111.219 161.402 111.406C161.552 111.592 161.646 111.815 161.675 112.048C161.703 112.282 161.664 112.519 161.563 112.734C159.162 117.784 155.18 121.994 150.169 124.78C148.354 125.777 146.249 126.813 145.743 128.751C145.417 130.004 145.917 131.29 146.365 132.499C149.187 139.985 150.959 147.796 151.634 155.728C151.649 156.035 151.567 156.339 151.399 156.6C151.231 156.861 150.985 157.068 150.692 157.193C150.399 157.318 150.074 157.356 149.759 157.301C149.443 157.247 149.152 157.102 148.924 156.887C143.561 151.936 141.817 143.704 137.414 137.617C136.985 136.88 136.32 136.295 135.518 135.946C134.488 135.601 133.348 135.946 132.33 136.336C124.398 139.183 116.254 141.456 107.966 143.136C105.727 143.576 102.342 143.008 102.767 140.908C102.953 140.264 103.348 139.692 103.895 139.277C107.507 135.962 111.761 133.355 116.417 131.602L129.434 126.679Z" fill="#FBC8B8"/>
<path d="M160.789 61.4408C155.525 66.2081 156.822 76.2884 165.838 73.8714C179.139 70.2903 169.798 53.2763 160.789 61.4408Z" fill="#F7BC28"/>
<path d="M273.629 343.328C268.395 348.101 269.669 358.176 278.678 355.759C291.974 352.178 282.668 335.169 273.629 343.328Z" fill="#F7BC28"/>
<path d="M288.519 368.574C286.041 370.696 286.658 375.173 290.898 374.104C297.162 372.533 292.759 364.948 288.519 368.574Z" fill="#F7BC28"/>
</g>
</g>
<defs>
<clipPath id="clip0_1_1355">
<rect width="1440" height="415" fill="white"/>
</clipPath>
<clipPath id="clip1_1_1355">
<rect width="300" height="400" fill="white" transform="translate(1140 20)"/>
</clipPath>
<clipPath id="clip2_1_1355">
<rect width="300" height="400" fill="white" transform="translate(0 20)"/>
</clipPath>
</defs>
</svg>
